<mxfile host="Electron" agent="Mozilla/5.0 (Windows NT 10.0; Win64; x64) AppleWebKit/537.36 (KHTML, like Gecko) draw.io/25.0.2 Chrome/128.0.6613.186 Electron/32.2.5 Safari/537.36" version="25.0.2">
  <diagram name="第 1 页" id="IOZdcmnX_ZwYozs4pUqz">
    <mxGraphModel dx="1233" dy="720" grid="1" gridSize="10" guides="1" tooltips="1" connect="1" arrows="1" fold="1" page="1" pageScale="1" pageWidth="827" pageHeight="1169" math="0" shadow="0">
      <root>
        <mxCell id="0" />
        <mxCell id="1" parent="0" />
        <mxCell id="44ZCchRHZa2lmiK1BbIS-1" value="" style="rounded=0;whiteSpace=wrap;html=1;" vertex="1" parent="1">
          <mxGeometry x="360" y="280" width="2590" height="1160" as="geometry" />
        </mxCell>
        <mxCell id="44ZCchRHZa2lmiK1BbIS-2" value="&lt;font style=&quot;font-size: 30px;&quot;&gt;标题+版本号&lt;/font&gt;" style="rounded=0;whiteSpace=wrap;html=1;" vertex="1" parent="1">
          <mxGeometry x="1357.5" y="280" width="595" height="60" as="geometry" />
        </mxCell>
        <mxCell id="44ZCchRHZa2lmiK1BbIS-8" value="" style="group;fillColor=#d5e8d4;strokeColor=#82b366;" vertex="1" connectable="0" parent="1">
          <mxGeometry x="740" y="460" width="350" height="160" as="geometry" />
        </mxCell>
        <mxCell id="44ZCchRHZa2lmiK1BbIS-4" value="&lt;div style=&quot;text-align: left;&quot;&gt;&lt;span style=&quot;font-size: 15px; background-color: initial;&quot;&gt;文本：模组内文本.膀胱按钮文本&lt;/span&gt;&lt;/div&gt;&lt;div&gt;&lt;div style=&quot;text-align: left;&quot;&gt;&lt;span style=&quot;font-size: 15px; background-color: initial;&quot;&gt;图标：无&lt;/span&gt;&lt;/div&gt;&lt;div&gt;&lt;div style=&quot;text-align: left;&quot;&gt;&lt;font style=&quot;font-size: 15px;&quot;&gt;&lt;br&gt;&lt;/font&gt;&lt;/div&gt;&lt;/div&gt;&lt;/div&gt;" style="rounded=0;whiteSpace=wrap;html=1;fillColor=#dae8fc;strokeColor=#6c8ebf;" vertex="1" parent="44ZCchRHZa2lmiK1BbIS-8">
          <mxGeometry width="350" height="160" as="geometry" />
        </mxCell>
        <mxCell id="44ZCchRHZa2lmiK1BbIS-6" value="位置：&lt;br&gt;大小：" style="rounded=0;whiteSpace=wrap;html=1;fillColor=#f8cecc;strokeColor=#b85450;align=left;" vertex="1" parent="44ZCchRHZa2lmiK1BbIS-8">
          <mxGeometry x="70" y="101.81818181818183" width="210" height="58.18181818181819" as="geometry" />
        </mxCell>
        <mxCell id="44ZCchRHZa2lmiK1BbIS-12" value="膀胱设置按钮" style="rounded=0;whiteSpace=wrap;html=1;fillColor=#d5e8d4;strokeColor=#82b366;" vertex="1" parent="44ZCchRHZa2lmiK1BbIS-8">
          <mxGeometry x="115" width="120" height="30" as="geometry" />
        </mxCell>
        <mxCell id="44ZCchRHZa2lmiK1BbIS-13" value="" style="group;fillColor=#d5e8d4;strokeColor=#82b366;" vertex="1" connectable="0" parent="1">
          <mxGeometry x="2580" y="310" width="350" height="160" as="geometry" />
        </mxCell>
        <mxCell id="44ZCchRHZa2lmiK1BbIS-14" value="&lt;div style=&quot;text-align: left;&quot;&gt;&lt;span style=&quot;font-size: 15px; background-color: initial;&quot;&gt;文本：无&lt;/span&gt;&lt;/div&gt;&lt;div&gt;&lt;div style=&quot;text-align: left;&quot;&gt;&lt;span style=&quot;font-size: 15px; background-color: initial;&quot;&gt;图标：“&lt;/span&gt;&lt;span style=&quot;color: rgb(152, 195, 121); background-color: rgb(40, 44, 52); font-family: Consolas, &amp;quot;Courier New&amp;quot;, monospace; font-size: 20px; font-weight: bold; white-space: pre; text-align: center;&quot;&gt;Icons/Exit.png&lt;/span&gt;&lt;span style=&quot;background-color: initial; font-size: 15px;&quot;&gt;”&lt;/span&gt;&lt;/div&gt;&lt;div&gt;&lt;div style=&quot;text-align: left;&quot;&gt;&lt;font style=&quot;font-size: 15px;&quot;&gt;&lt;br&gt;&lt;/font&gt;&lt;/div&gt;&lt;/div&gt;&lt;/div&gt;" style="rounded=0;whiteSpace=wrap;html=1;fillColor=#dae8fc;strokeColor=#6c8ebf;" vertex="1" parent="44ZCchRHZa2lmiK1BbIS-13">
          <mxGeometry width="350" height="160" as="geometry" />
        </mxCell>
        <mxCell id="44ZCchRHZa2lmiK1BbIS-15" value="位置：1815,75&lt;br&gt;大小：90,90" style="rounded=0;whiteSpace=wrap;html=1;fillColor=#f8cecc;strokeColor=#b85450;align=left;" vertex="1" parent="44ZCchRHZa2lmiK1BbIS-13">
          <mxGeometry x="70" y="101.81818181818183" width="210" height="58.18181818181819" as="geometry" />
        </mxCell>
        <mxCell id="44ZCchRHZa2lmiK1BbIS-16" value="设置按钮" style="rounded=0;whiteSpace=wrap;html=1;fillColor=#d5e8d4;strokeColor=#82b366;" vertex="1" parent="44ZCchRHZa2lmiK1BbIS-13">
          <mxGeometry x="115" width="120" height="30" as="geometry" />
        </mxCell>
      </root>
    </mxGraphModel>
  </diagram>
</mxfile>
